<mxfile host="65bd71144e" modified="2021-03-06T16:33:25.070Z" agent="5.0 (X11; Linux x86_64) AppleWebKit/537.36 (KHTML, like Gecko) Code/1.53.2 Chrome/87.0.4280.141 Electron/11.2.1 Safari/537.36" etag="kaz8JnnmLoY-cyvbfvrV" version="14.2.4" type="embed">
    <diagram id="tuk95KM_O3hs2elBufYH" name="Page-1">
        <mxGraphModel dx="1968" dy="1568" grid="1" gridSize="10" guides="1" tooltips="1" connect="1" arrows="1" fold="1" page="1" pageScale="1" pageWidth="850" pageHeight="1100" math="0" shadow="0">
            <root>
                <mxCell id="0"/>
                <mxCell id="1" parent="0"/>
                <mxCell id="88" value="" style="rounded=0;whiteSpace=wrap;html=1;align=center;" parent="1" vertex="1">
                    <mxGeometry x="-830" y="-596" width="450" height="460" as="geometry"/>
                </mxCell>
                <mxCell id="3" style="edgeStyle=orthogonalEdgeStyle;rounded=0;orthogonalLoop=1;jettySize=auto;html=1;" parent="1" source="2" edge="1">
                    <mxGeometry relative="1" as="geometry">
                        <mxPoint y="-1000" as="targetPoint"/>
                    </mxGeometry>
                </mxCell>
                <mxCell id="2" value="&lt;font style=&quot;font-size: 20px&quot;&gt;AREA - Front&lt;/font&gt;" style="rounded=0;whiteSpace=wrap;html=1;" parent="1" vertex="1">
                    <mxGeometry x="-560" y="-1100" width="1120" height="70" as="geometry"/>
                </mxCell>
                <mxCell id="5" style="edgeStyle=orthogonalEdgeStyle;rounded=0;orthogonalLoop=1;jettySize=auto;html=1;" parent="1" source="4" edge="1">
                    <mxGeometry relative="1" as="geometry">
                        <mxPoint x="-80" y="-960" as="targetPoint"/>
                    </mxGeometry>
                </mxCell>
                <mxCell id="34" style="edgeStyle=orthogonalEdgeStyle;rounded=0;orthogonalLoop=1;jettySize=auto;html=1;exitX=1;exitY=0.5;exitDx=0;exitDy=0;entryX=0.869;entryY=-0.023;entryDx=0;entryDy=0;entryPerimeter=0;" parent="1" source="4" target="31" edge="1">
                    <mxGeometry relative="1" as="geometry">
                        <mxPoint x="80" y="-610" as="targetPoint"/>
                    </mxGeometry>
                </mxCell>
                <mxCell id="4" value="is logged?" style="rhombus;whiteSpace=wrap;html=1;" parent="1" vertex="1">
                    <mxGeometry x="-40" y="-1000" width="80" height="80" as="geometry"/>
                </mxCell>
                <mxCell id="6" value="" style="rounded=0;whiteSpace=wrap;html=1;" parent="1" vertex="1">
                    <mxGeometry x="-300" y="-980" width="220" height="160" as="geometry"/>
                </mxCell>
                <mxCell id="7" value="&lt;font style=&quot;font-size: 13px&quot;&gt;Login Page&lt;/font&gt;" style="rounded=0;whiteSpace=wrap;html=1;" parent="1" vertex="1">
                    <mxGeometry x="-300" y="-980" width="220" height="30" as="geometry"/>
                </mxCell>
                <mxCell id="8" value="Email input" style="text;html=1;strokeColor=none;fillColor=none;align=center;verticalAlign=middle;whiteSpace=wrap;rounded=0;" parent="1" vertex="1">
                    <mxGeometry x="-290" y="-940" width="70" height="20" as="geometry"/>
                </mxCell>
                <mxCell id="9" value="Password input" style="text;html=1;strokeColor=none;fillColor=none;align=center;verticalAlign=middle;whiteSpace=wrap;rounded=0;" parent="1" vertex="1">
                    <mxGeometry x="-290" y="-920" width="90" height="20" as="geometry"/>
                </mxCell>
                <mxCell id="12" style="edgeStyle=orthogonalEdgeStyle;rounded=0;orthogonalLoop=1;jettySize=auto;html=1;exitX=1;exitY=0.5;exitDx=0;exitDy=0;entryX=0.316;entryY=-0.054;entryDx=0;entryDy=0;entryPerimeter=0;" parent="1" source="10" target="31" edge="1">
                    <mxGeometry relative="1" as="geometry">
                        <mxPoint x="-40" y="-720" as="targetPoint"/>
                    </mxGeometry>
                </mxCell>
                <mxCell id="10" value="Login" style="rounded=1;whiteSpace=wrap;html=1;" parent="1" vertex="1">
                    <mxGeometry x="-170" y="-940" width="80" height="30" as="geometry"/>
                </mxCell>
                <mxCell id="29" style="edgeStyle=orthogonalEdgeStyle;rounded=0;orthogonalLoop=1;jettySize=auto;html=1;exitX=0;exitY=0.5;exitDx=0;exitDy=0;entryX=0;entryY=0.5;entryDx=0;entryDy=0;" parent="1" source="11" target="15" edge="1">
                    <mxGeometry relative="1" as="geometry"/>
                </mxCell>
                <mxCell id="11" value="Register" style="rounded=1;whiteSpace=wrap;html=1;" parent="1" vertex="1">
                    <mxGeometry x="-170" y="-900" width="80" height="30" as="geometry"/>
                </mxCell>
                <mxCell id="14" value="" style="rounded=0;whiteSpace=wrap;html=1;" parent="1" vertex="1">
                    <mxGeometry x="-300" y="-799" width="220" height="159" as="geometry"/>
                </mxCell>
                <mxCell id="15" value="&lt;font style=&quot;font-size: 13px&quot;&gt;Register Page&lt;/font&gt;" style="rounded=0;whiteSpace=wrap;html=1;" parent="1" vertex="1">
                    <mxGeometry x="-300" y="-798" width="220" height="30" as="geometry"/>
                </mxCell>
                <mxCell id="16" value="Email input" style="text;html=1;strokeColor=none;fillColor=none;align=left;verticalAlign=middle;whiteSpace=wrap;rounded=0;" parent="1" vertex="1">
                    <mxGeometry x="-290" y="-758" width="70" height="20" as="geometry"/>
                </mxCell>
                <mxCell id="17" value="Password input" style="text;html=1;strokeColor=none;fillColor=none;align=left;verticalAlign=middle;whiteSpace=wrap;rounded=0;" parent="1" vertex="1">
                    <mxGeometry x="-290" y="-738" width="90" height="20" as="geometry"/>
                </mxCell>
                <mxCell id="22" style="edgeStyle=orthogonalEdgeStyle;rounded=0;orthogonalLoop=1;jettySize=auto;html=1;exitX=1;exitY=0.5;exitDx=0;exitDy=0;entryX=1.005;entryY=0.463;entryDx=0;entryDy=0;entryPerimeter=0;" parent="1" source="18" target="6" edge="1">
                    <mxGeometry relative="1" as="geometry">
                        <Array as="points">
                            <mxPoint x="-70" y="-743"/>
                            <mxPoint x="-70" y="-906"/>
                        </Array>
                    </mxGeometry>
                </mxCell>
                <mxCell id="18" value="Login" style="rounded=1;whiteSpace=wrap;html=1;" parent="1" vertex="1">
                    <mxGeometry x="-170" y="-758" width="80" height="30" as="geometry"/>
                </mxCell>
                <mxCell id="25" style="edgeStyle=orthogonalEdgeStyle;rounded=0;orthogonalLoop=1;jettySize=auto;html=1;exitX=1;exitY=0.5;exitDx=0;exitDy=0;" parent="1" source="19" edge="1">
                    <mxGeometry relative="1" as="geometry">
                        <mxPoint x="-70" y="-750" as="targetPoint"/>
                    </mxGeometry>
                </mxCell>
                <mxCell id="19" value="Register" style="rounded=1;whiteSpace=wrap;html=1;" parent="1" vertex="1">
                    <mxGeometry x="-170" y="-718" width="80" height="30" as="geometry"/>
                </mxCell>
                <mxCell id="20" value="Password confirmation input" style="text;html=1;strokeColor=none;fillColor=none;align=left;verticalAlign=middle;whiteSpace=wrap;rounded=0;" parent="1" vertex="1">
                    <mxGeometry x="-290" y="-713" width="100" height="20" as="geometry"/>
                </mxCell>
                <mxCell id="23" value="No" style="text;html=1;strokeColor=none;fillColor=none;align=center;verticalAlign=middle;whiteSpace=wrap;rounded=0;" parent="1" vertex="1">
                    <mxGeometry x="-70" y="-980" width="40" height="20" as="geometry"/>
                </mxCell>
                <mxCell id="26" value="Login with Google" style="rounded=1;whiteSpace=wrap;html=1;" parent="1" vertex="1">
                    <mxGeometry x="-280" y="-860" width="180" height="30" as="geometry"/>
                </mxCell>
                <mxCell id="28" style="edgeStyle=orthogonalEdgeStyle;rounded=0;orthogonalLoop=1;jettySize=auto;html=1;exitX=1;exitY=0.5;exitDx=0;exitDy=0;" parent="1" source="27" edge="1">
                    <mxGeometry relative="1" as="geometry">
                        <mxPoint x="-70" y="-710" as="targetPoint"/>
                    </mxGeometry>
                </mxCell>
                <mxCell id="27" value="Register with Google" style="rounded=1;whiteSpace=wrap;html=1;" parent="1" vertex="1">
                    <mxGeometry x="-280" y="-680" width="180" height="30" as="geometry"/>
                </mxCell>
                <mxCell id="30" value="" style="rounded=0;whiteSpace=wrap;html=1;align=left;" parent="1" vertex="1">
                    <mxGeometry x="-110" y="-600" width="220" height="170" as="geometry"/>
                </mxCell>
                <mxCell id="31" value="&lt;font style=&quot;font-size: 14px&quot;&gt;AREA page&lt;/font&gt;" style="rounded=0;whiteSpace=wrap;html=1;align=center;" parent="1" vertex="1">
                    <mxGeometry x="-110" y="-600" width="220" height="40" as="geometry"/>
                </mxCell>
                <mxCell id="44" style="edgeStyle=orthogonalEdgeStyle;rounded=0;orthogonalLoop=1;jettySize=auto;html=1;exitX=1;exitY=0.5;exitDx=0;exitDy=0;entryX=-0.006;entryY=0.65;entryDx=0;entryDy=0;entryPerimeter=0;" parent="1" source="32" target="39" edge="1">
                    <mxGeometry relative="1" as="geometry">
                        <mxPoint x="120" y="-830" as="targetPoint"/>
                        <Array as="points">
                            <mxPoint x="120" y="-535"/>
                            <mxPoint x="120" y="-960"/>
                        </Array>
                    </mxGeometry>
                </mxCell>
                <mxCell id="32" value="Header" style="rounded=0;whiteSpace=wrap;html=1;align=center;" parent="1" vertex="1">
                    <mxGeometry x="-90" y="-550" width="180" height="30" as="geometry"/>
                </mxCell>
                <mxCell id="70" style="edgeStyle=orthogonalEdgeStyle;rounded=0;orthogonalLoop=1;jettySize=auto;html=1;exitX=1;exitY=0.5;exitDx=0;exitDy=0;entryX=0;entryY=0.5;entryDx=0;entryDy=0;" parent="1" source="33" target="72" edge="1">
                    <mxGeometry relative="1" as="geometry">
                        <mxPoint x="320" y="-965" as="targetPoint"/>
                        <Array as="points">
                            <mxPoint x="320" y="-495"/>
                            <mxPoint x="320" y="-965"/>
                        </Array>
                    </mxGeometry>
                </mxCell>
                <mxCell id="33" value="AREA Container" style="rounded=0;whiteSpace=wrap;html=1;align=center;" parent="1" vertex="1">
                    <mxGeometry x="-90" y="-510" width="180" height="30" as="geometry"/>
                </mxCell>
                <mxCell id="35" value="Yes" style="text;html=1;strokeColor=none;fillColor=none;align=center;verticalAlign=middle;whiteSpace=wrap;rounded=0;" parent="1" vertex="1">
                    <mxGeometry x="40" y="-980" width="40" height="20" as="geometry"/>
                </mxCell>
                <mxCell id="37" value="" style="rounded=0;whiteSpace=wrap;html=1;align=left;" parent="1" vertex="1">
                    <mxGeometry x="160" y="-980" width="140" height="160" as="geometry"/>
                </mxCell>
                <mxCell id="39" value="&lt;font style=&quot;font-size: 14px&quot;&gt;Header&lt;/font&gt;" style="rounded=0;whiteSpace=wrap;html=1;align=center;" parent="1" vertex="1">
                    <mxGeometry x="160" y="-980" width="140" height="30" as="geometry"/>
                </mxCell>
                <mxCell id="40" value="Title: AREA" style="text;html=1;strokeColor=none;fillColor=none;align=left;verticalAlign=middle;whiteSpace=wrap;rounded=0;" parent="1" vertex="1">
                    <mxGeometry x="170" y="-940" width="110" height="20" as="geometry"/>
                </mxCell>
                <mxCell id="41" value="Welcome message: Hello {USER_MAIL}" style="text;html=1;strokeColor=none;fillColor=none;align=left;verticalAlign=middle;whiteSpace=wrap;rounded=0;" parent="1" vertex="1">
                    <mxGeometry x="170" y="-915" width="110" height="20" as="geometry"/>
                </mxCell>
                <mxCell id="52" style="edgeStyle=orthogonalEdgeStyle;rounded=0;orthogonalLoop=1;jettySize=auto;html=1;exitX=0.5;exitY=1;exitDx=0;exitDy=0;entryX=0.5;entryY=0;entryDx=0;entryDy=0;" parent="1" source="42" target="47" edge="1">
                    <mxGeometry relative="1" as="geometry"/>
                </mxCell>
                <mxCell id="42" value="Settings" style="rounded=1;whiteSpace=wrap;html=1;align=center;" parent="1" vertex="1">
                    <mxGeometry x="170" y="-850" width="120" height="20" as="geometry"/>
                </mxCell>
                <mxCell id="43" value="Darkmode switch" style="rounded=1;whiteSpace=wrap;html=1;align=center;" parent="1" vertex="1">
                    <mxGeometry x="170" y="-880" width="120" height="20" as="geometry"/>
                </mxCell>
                <mxCell id="46" value="" style="rounded=0;whiteSpace=wrap;html=1;align=left;" parent="1" vertex="1">
                    <mxGeometry x="160" y="-768" width="140" height="238" as="geometry"/>
                </mxCell>
                <mxCell id="47" value="&lt;font style=&quot;font-size: 14px&quot;&gt;Settings&lt;/font&gt;" style="rounded=0;whiteSpace=wrap;html=1;align=center;" parent="1" vertex="1">
                    <mxGeometry x="160" y="-768" width="140" height="30" as="geometry"/>
                </mxCell>
                <mxCell id="48" value="User uuid" style="text;html=1;strokeColor=none;fillColor=none;align=left;verticalAlign=middle;whiteSpace=wrap;rounded=0;" parent="1" vertex="1">
                    <mxGeometry x="170" y="-728" width="110" height="20" as="geometry"/>
                </mxCell>
                <mxCell id="49" value="User email address" style="text;html=1;strokeColor=none;fillColor=none;align=left;verticalAlign=middle;whiteSpace=wrap;rounded=0;" parent="1" vertex="1">
                    <mxGeometry x="170" y="-703" width="110" height="20" as="geometry"/>
                </mxCell>
                <mxCell id="53" style="edgeStyle=orthogonalEdgeStyle;rounded=0;orthogonalLoop=1;jettySize=auto;html=1;exitX=0;exitY=0.5;exitDx=0;exitDy=0;" parent="1" source="50" edge="1">
                    <mxGeometry relative="1" as="geometry">
                        <mxPoint x="-70" y="-670" as="targetPoint"/>
                    </mxGeometry>
                </mxCell>
                <mxCell id="50" value="Logout" style="rounded=1;whiteSpace=wrap;html=1;align=center;" parent="1" vertex="1">
                    <mxGeometry x="170" y="-673" width="120" height="20" as="geometry"/>
                </mxCell>
                <mxCell id="51" value="Timer settings for AREAs refresh" style="rounded=1;whiteSpace=wrap;html=1;align=center;" parent="1" vertex="1">
                    <mxGeometry x="170" y="-640" width="120" height="30" as="geometry"/>
                </mxCell>
                <mxCell id="55" style="edgeStyle=orthogonalEdgeStyle;rounded=0;orthogonalLoop=1;jettySize=auto;html=1;exitX=0;exitY=0.5;exitDx=0;exitDy=0;entryX=1;entryY=0.5;entryDx=0;entryDy=0;" parent="1" source="54" target="57" edge="1">
                    <mxGeometry relative="1" as="geometry">
                        <mxPoint x="-360" y="-930" as="targetPoint"/>
                        <Array as="points">
                            <mxPoint x="-340" y="-455"/>
                            <mxPoint x="-340" y="-965"/>
                        </Array>
                    </mxGeometry>
                </mxCell>
                <mxCell id="54" value="Add AREA" style="rounded=1;whiteSpace=wrap;html=1;align=center;" parent="1" vertex="1">
                    <mxGeometry x="-90" y="-470" width="180" height="30" as="geometry"/>
                </mxCell>
                <mxCell id="56" value="" style="rounded=0;whiteSpace=wrap;html=1;align=center;" parent="1" vertex="1">
                    <mxGeometry x="-500" y="-980" width="140" height="270" as="geometry"/>
                </mxCell>
                <mxCell id="57" value="Modal" style="rounded=0;whiteSpace=wrap;html=1;align=center;" parent="1" vertex="1">
                    <mxGeometry x="-500" y="-980" width="140" height="30" as="geometry"/>
                </mxCell>
                <mxCell id="60" value="Title: AREA title" style="text;html=1;strokeColor=none;fillColor=none;align=left;verticalAlign=middle;whiteSpace=wrap;rounded=0;" parent="1" vertex="1">
                    <mxGeometry x="-490" y="-940" width="120" height="20" as="geometry"/>
                </mxCell>
                <mxCell id="68" value="Add" style="rounded=1;whiteSpace=wrap;html=1;align=center;" parent="1" vertex="1">
                    <mxGeometry x="-490" y="-778" width="120" height="20" as="geometry"/>
                </mxCell>
                <mxCell id="128" value="" style="edgeStyle=orthogonalEdgeStyle;rounded=0;orthogonalLoop=1;jettySize=auto;html=1;" edge="1" parent="1" target="89">
                    <mxGeometry relative="1" as="geometry">
                        <mxPoint x="-430" y="-737" as="sourcePoint"/>
                    </mxGeometry>
                </mxCell>
                <mxCell id="69" value="Cancel" style="rounded=1;whiteSpace=wrap;html=1;align=center;" parent="1" vertex="1">
                    <mxGeometry x="-490" y="-748" width="120" height="20" as="geometry"/>
                </mxCell>
                <mxCell id="71" value="" style="rounded=0;whiteSpace=wrap;html=1;align=left;" parent="1" vertex="1">
                    <mxGeometry x="360" y="-980" width="160" height="130" as="geometry"/>
                </mxCell>
                <mxCell id="72" value="&lt;span&gt;&lt;font style=&quot;font-size: 14px&quot;&gt;AREA Container&lt;/font&gt;&lt;/span&gt;" style="rounded=0;whiteSpace=wrap;html=1;align=center;" parent="1" vertex="1">
                    <mxGeometry x="360" y="-980" width="160" height="30" as="geometry"/>
                </mxCell>
                <mxCell id="73" value="" style="rounded=0;whiteSpace=wrap;html=1;align=left;" parent="1" vertex="1">
                    <mxGeometry x="370" y="-940" width="140" height="80" as="geometry"/>
                </mxCell>
                <mxCell id="74" value="List" style="rounded=0;whiteSpace=wrap;html=1;align=center;" parent="1" vertex="1">
                    <mxGeometry x="370" y="-940" width="140" height="30" as="geometry"/>
                </mxCell>
                <mxCell id="75" value="Array of&amp;nbsp;" style="text;html=1;strokeColor=none;fillColor=none;align=center;verticalAlign=middle;whiteSpace=wrap;rounded=0;" parent="1" vertex="1">
                    <mxGeometry x="380" y="-895" width="50" height="20" as="geometry"/>
                </mxCell>
                <mxCell id="80" style="edgeStyle=orthogonalEdgeStyle;rounded=0;orthogonalLoop=1;jettySize=auto;html=1;exitX=0.5;exitY=1;exitDx=0;exitDy=0;entryX=0.5;entryY=0;entryDx=0;entryDy=0;" parent="1" source="77" target="79" edge="1">
                    <mxGeometry relative="1" as="geometry"/>
                </mxCell>
                <mxCell id="77" value="AREA" style="rounded=0;whiteSpace=wrap;html=1;align=center;" parent="1" vertex="1">
                    <mxGeometry x="440" y="-900" width="60" height="30" as="geometry"/>
                </mxCell>
                <mxCell id="78" value="" style="rounded=0;whiteSpace=wrap;html=1;align=center;" parent="1" vertex="1">
                    <mxGeometry x="360" y="-800" width="160" height="170" as="geometry"/>
                </mxCell>
                <mxCell id="79" value="&lt;font style=&quot;font-size: 14px&quot;&gt;AREA&lt;/font&gt;" style="rounded=0;whiteSpace=wrap;html=1;align=center;" parent="1" vertex="1">
                    <mxGeometry x="360" y="-800" width="160" height="30" as="geometry"/>
                </mxCell>
                <mxCell id="83" value="title: {AREA name}" style="text;html=1;strokeColor=none;fillColor=none;align=center;verticalAlign=middle;whiteSpace=wrap;rounded=0;" parent="1" vertex="1">
                    <mxGeometry x="380" y="-748" width="120" height="20" as="geometry"/>
                </mxCell>
                <mxCell id="85" value="View AREA details" style="rounded=1;whiteSpace=wrap;html=1;align=center;" parent="1" vertex="1">
                    <mxGeometry x="380" y="-683" width="120" height="30" as="geometry"/>
                </mxCell>
                <mxCell id="89" value="AREA Details" style="rounded=0;whiteSpace=wrap;html=1;align=center;" parent="1" vertex="1">
                    <mxGeometry x="-830" y="-650" width="450" height="62" as="geometry"/>
                </mxCell>
                <mxCell id="99" value="Connexion buttons to link account to external services" style="rounded=1;whiteSpace=wrap;html=1;align=center;" vertex="1" parent="1">
                    <mxGeometry x="170" y="-600" width="120" height="60" as="geometry"/>
                </mxCell>
                <mxCell id="101" value="description: {AREA description}" style="text;html=1;strokeColor=none;fillColor=none;align=center;verticalAlign=middle;whiteSpace=wrap;rounded=0;" vertex="1" parent="1">
                    <mxGeometry x="380" y="-718" width="120" height="20" as="geometry"/>
                </mxCell>
                <mxCell id="105" style="edgeStyle=orthogonalEdgeStyle;rounded=0;orthogonalLoop=1;jettySize=auto;html=1;exitX=0.5;exitY=1;exitDx=0;exitDy=0;" edge="1" parent="1" source="89" target="89">
                    <mxGeometry relative="1" as="geometry"/>
                </mxCell>
                <mxCell id="111" value="" style="rounded=0;whiteSpace=wrap;html=1;align=center;" vertex="1" parent="1">
                    <mxGeometry x="-690" y="-576" width="170" height="210" as="geometry"/>
                </mxCell>
                <mxCell id="108" value="title: {AREA name}" style="text;html=1;strokeColor=none;fillColor=none;align=center;verticalAlign=middle;whiteSpace=wrap;rounded=0;" vertex="1" parent="1">
                    <mxGeometry x="-665" y="-536" width="120" height="20" as="geometry"/>
                </mxCell>
                <mxCell id="109" value="description: {AREA description}" style="text;html=1;strokeColor=none;fillColor=none;align=center;verticalAlign=middle;whiteSpace=wrap;rounded=0;" vertex="1" parent="1">
                    <mxGeometry x="-665" y="-506" width="120" height="20" as="geometry"/>
                </mxCell>
                <mxCell id="110" value="is area enabled" style="text;html=1;strokeColor=none;fillColor=none;align=center;verticalAlign=middle;whiteSpace=wrap;rounded=0;" vertex="1" parent="1">
                    <mxGeometry x="-665" y="-476" width="120" height="20" as="geometry"/>
                </mxCell>
                <mxCell id="112" value="AREA informations" style="rounded=0;whiteSpace=wrap;html=1;align=center;" vertex="1" parent="1">
                    <mxGeometry x="-690" y="-576" width="170" height="38" as="geometry"/>
                </mxCell>
                <mxCell id="113" value="Disable AREA" style="rounded=1;whiteSpace=wrap;html=1;align=center;" vertex="1" parent="1">
                    <mxGeometry x="-665" y="-446" width="120" height="30" as="geometry"/>
                </mxCell>
                <mxCell id="115" value="Delete AREA" style="rounded=1;whiteSpace=wrap;html=1;align=center;" vertex="1" parent="1">
                    <mxGeometry x="-665" y="-406" width="120" height="30" as="geometry"/>
                </mxCell>
                <mxCell id="116" value="Action informations" style="rounded=0;whiteSpace=wrap;html=1;align=center;" vertex="1" parent="1">
                    <mxGeometry x="-570" y="-346" width="170" height="38" as="geometry"/>
                </mxCell>
                <mxCell id="117" value="" style="rounded=0;whiteSpace=wrap;html=1;align=center;" vertex="1" parent="1">
                    <mxGeometry x="-570" y="-308" width="170" height="142" as="geometry"/>
                </mxCell>
                <mxCell id="118" style="edgeStyle=orthogonalEdgeStyle;rounded=0;orthogonalLoop=1;jettySize=auto;html=1;exitX=0;exitY=0.5;exitDx=0;exitDy=0;entryX=0.5;entryY=1;entryDx=0;entryDy=0;" edge="1" parent="1" source="85" target="88">
                    <mxGeometry relative="1" as="geometry">
                        <mxPoint x="-505" y="-80" as="targetPoint"/>
                        <Array as="points">
                            <mxPoint x="380" y="-658"/>
                            <mxPoint x="340" y="-658"/>
                            <mxPoint x="340" y="-410"/>
                            <mxPoint x="-280" y="-410"/>
                            <mxPoint x="-280" y="-40"/>
                            <mxPoint x="-605" y="-40"/>
                        </Array>
                        <mxPoint x="380" y="-668" as="sourcePoint"/>
                    </mxGeometry>
                </mxCell>
                <mxCell id="119" value="Service" style="rounded=1;whiteSpace=wrap;html=1;align=center;" vertex="1" parent="1">
                    <mxGeometry x="-545" y="-296" width="120" height="30" as="geometry"/>
                </mxCell>
                <mxCell id="120" value="Sub Service" style="rounded=1;whiteSpace=wrap;html=1;align=center;" vertex="1" parent="1">
                    <mxGeometry x="-545" y="-256" width="120" height="30" as="geometry"/>
                </mxCell>
                <mxCell id="121" value="Parameters" style="rounded=1;whiteSpace=wrap;html=1;align=center;" vertex="1" parent="1">
                    <mxGeometry x="-545" y="-218" width="120" height="30" as="geometry"/>
                </mxCell>
                <mxCell id="122" value="Reaction informations" style="rounded=0;whiteSpace=wrap;html=1;align=center;" vertex="1" parent="1">
                    <mxGeometry x="-810" y="-346" width="170" height="38" as="geometry"/>
                </mxCell>
                <mxCell id="124" value="" style="rounded=0;whiteSpace=wrap;html=1;align=center;" vertex="1" parent="1">
                    <mxGeometry x="-810" y="-308" width="170" height="142" as="geometry"/>
                </mxCell>
                <mxCell id="125" value="Service" style="rounded=1;whiteSpace=wrap;html=1;align=center;" vertex="1" parent="1">
                    <mxGeometry x="-785" y="-296" width="120" height="30" as="geometry"/>
                </mxCell>
                <mxCell id="126" value="Sub Service" style="rounded=1;whiteSpace=wrap;html=1;align=center;" vertex="1" parent="1">
                    <mxGeometry x="-785" y="-256" width="120" height="30" as="geometry"/>
                </mxCell>
                <mxCell id="127" value="Parameters" style="rounded=1;whiteSpace=wrap;html=1;align=center;" vertex="1" parent="1">
                    <mxGeometry x="-785" y="-218" width="120" height="30" as="geometry"/>
                </mxCell>
                <mxCell id="129" value="Description: AREA description" style="text;html=1;strokeColor=none;fillColor=none;align=left;verticalAlign=middle;whiteSpace=wrap;rounded=0;" vertex="1" parent="1">
                    <mxGeometry x="-490" y="-915" width="120" height="20" as="geometry"/>
                </mxCell>
                <mxCell id="130" value="" style="rounded=0;whiteSpace=wrap;html=1;align=center;" vertex="1" parent="1">
                    <mxGeometry x="-740" y="-983" width="140" height="163" as="geometry"/>
                </mxCell>
                <mxCell id="131" value="Informations Modal" style="rounded=0;whiteSpace=wrap;html=1;align=center;" vertex="1" parent="1">
                    <mxGeometry x="-740" y="-983" width="140" height="30" as="geometry"/>
                </mxCell>
                <mxCell id="132" value="Select Service" style="text;html=1;strokeColor=none;fillColor=none;align=left;verticalAlign=middle;whiteSpace=wrap;rounded=0;" vertex="1" parent="1">
                    <mxGeometry x="-715" y="-930" width="90" height="20" as="geometry"/>
                </mxCell>
                <mxCell id="64" value="Fill parameters infos" style="text;html=1;strokeColor=none;fillColor=none;align=left;verticalAlign=middle;whiteSpace=wrap;rounded=0;" parent="1" vertex="1">
                    <mxGeometry x="-720" y="-870" width="120" height="20" as="geometry"/>
                </mxCell>
                <mxCell id="133" value="Select Sub Service" style="text;html=1;strokeColor=none;fillColor=none;align=left;verticalAlign=middle;whiteSpace=wrap;rounded=0;" vertex="1" parent="1">
                    <mxGeometry x="-720" y="-900" width="120" height="20" as="geometry"/>
                </mxCell>
                <mxCell id="135" style="edgeStyle=orthogonalEdgeStyle;rounded=0;orthogonalLoop=1;jettySize=auto;html=1;exitX=0;exitY=0.5;exitDx=0;exitDy=0;entryX=1;entryY=0.75;entryDx=0;entryDy=0;" edge="1" parent="1" source="134" target="133">
                    <mxGeometry relative="1" as="geometry"/>
                </mxCell>
                <mxCell id="134" value="Add action" style="rounded=1;whiteSpace=wrap;html=1;align=center;" vertex="1" parent="1">
                    <mxGeometry x="-490" y="-870" width="120" height="20" as="geometry"/>
                </mxCell>
                <mxCell id="137" style="edgeStyle=orthogonalEdgeStyle;rounded=0;orthogonalLoop=1;jettySize=auto;html=1;entryX=1;entryY=0.877;entryDx=0;entryDy=0;entryPerimeter=0;" edge="1" parent="1" source="136" target="130">
                    <mxGeometry relative="1" as="geometry"/>
                </mxCell>
                <mxCell id="136" value="Add reaction" style="rounded=1;whiteSpace=wrap;html=1;align=center;" vertex="1" parent="1">
                    <mxGeometry x="-490" y="-830" width="120" height="20" as="geometry"/>
                </mxCell>
            </root>
        </mxGraphModel>
    </diagram>
</mxfile>